<?xml version="1.0" encoding="UTF-8" standalone="no"?>
<svg
   xmlns:dc="http://purl.org/dc/elements/1.1/"
   xmlns:cc="http://creativecommons.org/ns#"
   xmlns:rdf="http://www.w3.org/1999/02/22-rdf-syntax-ns#"
   xmlns:svg="http://www.w3.org/2000/svg"
   xmlns="http://www.w3.org/2000/svg"
   xmlns:xlink="http://www.w3.org/1999/xlink"
   xmlns:sodipodi="http://sodipodi.sourceforge.net/DTD/sodipodi-0.dtd"
   xmlns:inkscape="http://www.inkscape.org/namespaces/inkscape"
   width="259"
   height="152"
   viewBox="0 0 68.527097 40.216684"
   version="1.1"
   id="svg8"
   inkscape:version="1.0.2 (e86c870, 2021-01-15)"
   sodipodi:docname="IDD_LOGO_1.svg">
  <defs
     id="defs2">
    <linearGradient
       inkscape:collect="always"
       id="linearGradient875">
      <stop
         style="stop-color:#19004e;stop-opacity:1"
         offset="0"
         id="stop871" />
      <stop
         style="stop-color:#00e5e4;stop-opacity:1"
         offset="1"
         id="stop873" />
    </linearGradient>
    <linearGradient
       inkscape:collect="always"
       id="linearGradient869">
      <stop
         style="stop-color:#19004e;stop-opacity:1"
         offset="0"
         id="stop865" />
      <stop
         style="stop-color:#00e5e4;stop-opacity:1"
         offset="1"
         id="stop867" />
    </linearGradient>
    <linearGradient
       inkscape:collect="always"
       id="linearGradient857">
      <stop
         style="stop-color:#19004e;stop-opacity:1"
         offset="0"
         id="stop853" />
      <stop
         style="stop-color:#00e5e4;stop-opacity:1"
         offset="1"
         id="stop855" />
    </linearGradient>
    <inkscape:path-effect
       effect="bspline"
       id="path-effect855"
       is_visible="true"
       lpeversion="1"
       weight="33.333333"
       steps="2"
       helper_size="0"
       apply_no_weight="true"
       apply_with_weight="true"
       only_selected="false" />
    <inkscape:path-effect
       effect="bspline"
       id="path-effect837"
       is_visible="true"
       lpeversion="1"
       weight="33.333333"
       steps="2"
       helper_size="0"
       apply_no_weight="true"
       apply_with_weight="true"
       only_selected="false" />
    <linearGradient
       inkscape:collect="always"
       xlink:href="#linearGradient857"
       id="linearGradient859"
       x1="25.460505"
       y1="50.921009"
       x2="77.014069"
       y2="18.818636"
       gradientUnits="userSpaceOnUse" />
    <linearGradient
       inkscape:collect="always"
       xlink:href="#linearGradient875"
       id="linearGradient861"
       x1="25.460505"
       y1="50.921009"
       x2="77.014069"
       y2="18.818636"
       gradientUnits="userSpaceOnUse" />
    <linearGradient
       inkscape:collect="always"
       xlink:href="#linearGradient869"
       id="linearGradient863"
       x1="25.460505"
       y1="50.921009"
       x2="77.014069"
       y2="18.818636"
       gradientUnits="userSpaceOnUse" />
  </defs>
  <sodipodi:namedview
     id="base"
     pagecolor="#ffffff"
     bordercolor="#666666"
     borderopacity="1.0"
     inkscape:pageopacity="0.0"
     inkscape:pageshadow="2"
     inkscape:zoom="1.1830589"
     inkscape:cx="216.85053"
     inkscape:cy="69.907224"
     inkscape:document-units="mm"
     inkscape:current-layer="layer1"
     inkscape:document-rotation="0"
     showgrid="false"
     inkscape:window-width="1366"
     inkscape:window-height="705"
     inkscape:window-x="-8"
     inkscape:window-y="-8"
     inkscape:window-maximized="1"
     units="px" />
  <metadata
     id="metadata5">
    <rdf:RDF>
      <cc:Work
         rdf:about="">
        <dc:format>image/svg+xml</dc:format>
        <dc:type
           rdf:resource="http://purl.org/dc/dcmitype/StillImage" />
        <dc:title />
      </cc:Work>
    </rdf:RDF>
  </metadata>
  <g
     inkscape:label="Capa 1"
     inkscape:groupmode="layer"
     id="layer1">
    <path
       style="fill:url(#linearGradient859);fill-opacity:1;stroke:none;stroke-width:0.264583px;stroke-linecap:butt;stroke-linejoin:miter;stroke-opacity:1"
       d="m 0,2.5 v 35 C 0,40.00703 -0.07884894,40 2.4999998,40 H 12.5 C 14.993783,40 15,39.94451 15,37.5 V 2.5 C 15,-0.07762815 14.979194,0 12.500121,0 H 2.499879 C 0.00949336,0 0,-0.03966395 0,2.5 Z"
       id="path883"
       sodipodi:nodetypes="sssssssss" />
    <path
       style="fill:url(#linearGradient861);fill-opacity:1;stroke:none;stroke-width:0.264583px;stroke-linecap:butt;stroke-linejoin:miter;stroke-opacity:1"
       d="m 16.824998,1.2892632 v 3.1708907 c -0.03186,0.8126608 0.115435,1.0690128 0.976661,1.0690128 h 2.961821 c 0.731053,0.00935 0.6957,-0.010116 1.020738,0.4173635 l 2.764864,3.6362627 C 24.895175,9.9455576 24.964017,10 25.450126,10 h 4.374872 c 4.975809,1.937086 4.992805,19.049209 0,20 h -10.5 c -2.634946,0.01308 -2.534845,0.04744 -2.5,2.5 v 5 c 0.0343,2.549475 -0.07372,2.465155 2.614324,2.5 l 14.885676,-0.07015 c 13.658051,-2.747891 13.189845,-37.7016971 0,-40.0696899 L 18.010952,-0.00697081 C 17.117988,-0.05549148 16.824998,0.44331286 16.824998,1.2892632 Z"
       id="path885"
       sodipodi:nodetypes="ccccccccccccccccc" />
    <path
       style="fill:url(#linearGradient863);fill-opacity:1;stroke:none;stroke-width:0.264583px;stroke-linecap:butt;stroke-linejoin:miter;stroke-opacity:1"
       d="m 40.759187,1.4209281 8.625128,8.7107319 h 4.374872 c 4.975809,1.937086 4.992805,19.049209 0,20 l -3.979809,-0.107556 c -0.869168,0.02575 -0.933073,0.01708 -1.43123,0.515241 l -7.588655,8.150648 c -0.111072,1.677244 -0.07403,1.406822 2.614018,1.441667 l 14.885676,-0.07015 c 13.658051,-2.747891 13.189845,-37.7016925 0,-40.06968424 l -16.314046,0.132869 c -0.892964,-0.04852 -1.185954,0.45028367 -1.185954,1.29623334 z"
       id="path885-7"
       sodipodi:nodetypes="cccccccccccc" />
  </g>
</svg>
